inDegrees=no
num_controls=7
num_derivatives=13
num_iterations=53
num_multipliers=7
num_parameters=0
num_slacks=7
num_states=26
objective=0.432079
objective_accelerations=0.052165
objective_balance=0.006939
objective_effort=0.032802
objective_height=0.339020
objective_ligament=0.001152
solver_duration=682.039427
status=Solve_Succeeded
success=true
DataType=double
version=3
OpenSimVersion=4.5
endheader
time	/jointset/ground_pelvis/pelvis_tilt/value	/jointset/ground_pelvis/pelvis_tx/value	/jointset/ground_pelvis/pelvis_ty/value	/jointset/hip_l/hip_flexion_l/value	/jointset/hip_l/hip_adduction_l/value	/jointset/hip_l/hip_rotation_l/value	/jointset/back/lumbar_extension/value	/jointset/patellofemoral_l/patellar_flexion_l/value	/jointset/knee_l/knee_flexion_l/value	/jointset/knee_l/knee_adduction_l/value	/jointset/knee_l/knee_rotation_l/value	/jointset/ankle_l/ankle_angle_l/value	/jointset/subtalar_l/subtalar_angle_l/value	/jointset/ground_pelvis/pelvis_tilt/speed	/jointset/ground_pelvis/pelvis_tx/speed	/jointset/ground_pelvis/pelvis_ty/speed	/jointset/hip_l/hip_flexion_l/speed	/jointset/hip_l/hip_adduction_l/speed	/jointset/hip_l/hip_rotation_l/speed	/jointset/back/lumbar_extension/speed	/jointset/patellofemoral_l/patellar_flexion_l/speed	/jointset/knee_l/knee_flexion_l/speed	/jointset/knee_l/knee_adduction_l/speed	/jointset/knee_l/knee_rotation_l/speed	/jointset/ankle_l/ankle_angle_l/speed	/jointset/subtalar_l/subtalar_angle_l/speed	/forceset/tau_hip_flexion_l	/forceset/tau_hip_adduction_l	/forceset/tau_hip_rotation_l	/forceset/tau_knee_flexion_l	/forceset/tau_ankle_angle_l	/forceset/tau_subtalar_angle_l	/forceset/tau_lumbar_extension	lambda_cid13_p0	lambda_cid13_p1	lambda_cid13_p2	lambda_cid13_p3	lambda_cid13_p4	lambda_cid13_p5	lambda_cid14_p0	/jointset/ground_pelvis/pelvis_tilt/accel	/jointset/ground_pelvis/pelvis_tx/accel	/jointset/ground_pelvis/pelvis_ty/accel	/jointset/hip_l/hip_flexion_l/accel	/jointset/hip_l/hip_adduction_l/accel	/jointset/hip_l/hip_rotation_l/accel	/jointset/back/lumbar_extension/accel	/jointset/patellofemoral_l/patellar_flexion_l/accel	/jointset/knee_l/knee_flexion_l/accel	/jointset/knee_l/knee_adduction_l/accel	/jointset/knee_l/knee_rotation_l/accel	/jointset/ankle_l/ankle_angle_l/accel	/jointset/subtalar_l/subtalar_angle_l/accel	gamma_cid13_p0	gamma_cid13_p1	gamma_cid13_p2	gamma_cid13_p3	gamma_cid13_p4	gamma_cid13_p5	gamma_cid14_p0
1.5	-0.3487697382822428	-0.03516916373664453	0.7607597623690843	1.197988621075957	-0.3050169424217362	0.0142465040975022	-0.3387000224394514	0.8270019250666588	0.8270019250659071	-0.1735265615132912	0.1669416631720106	0.1596382765145097	-0.02048742407784502	0.4617054446406725	0.1651349612296161	0.5219001530820058	-2.170085731271552	-0.01524282631419623	-0.7034233691067906	0.5762347095112803	-2.118305749872802	-2.118305749871932	0.0059585010444217	-0.04535516448185788	-0.5332254673425313	-0.1036816028644785	-0.1999992367036427	0.06667289903000463	-0.02552895251810313	-0.2526027177259231	0.1077059499184384	-0.00192253197591293	0.1959445941030984	-4.676406443373452	0.8791695558357573	0.3421865340930593	-2.097911618803002	-606.3253604932082	-18.48873475430388	-19.86500379572584	0.5470399911306201	0.5680546641691515	-0.4221978083157064	-1.367787523281344	0.6927369742195852	-0.3420716715485596	1.661277911968899	-1.377968170327251	-1.377968170327272	0.05112597524626798	-0.1090469924875947	-0.5780844956491802	0.7101883205241131	4.187363452977029e-07	4.970608000293273e-07	-2.634858861239597e-06	-2.843588508131263e-07	5.117658236495272e-07	2.231047540643815e-07	4.177614436378939e-07
1.51	-0.3441254955797147	-0.03348956024912026	0.7659565865843455	1.176221547174168	-0.3051358696263824	0.007198077217417308	-0.3328560012075268	0.8057523293989189	0.8057523293984474	-0.1734683605152556	0.1664826397761484	0.1542775003365333	-0.02149020965826222	0.4670765484211821	0.1707648196099248	0.5173543314529867	-2.183015546181363	-0.008519628800401323	-0.7061867206157756	0.5924797506257102	-2.131300682145091	-2.131300682144626	0.005691598566808638	-0.04643437043887992	-0.538834230150897	-0.09685449342587769	-0.1934312129702269	0.06642302023536005	-0.02541081405609984	-0.2498349759157924	0.1093384045646632	-0.002539740487527545	0.190483240285487	-3.924393725536687	0.8503546262123909	0.5354736987315782	-2.317934341519538	-601.7603710982296	-18.52137773847507	-21.16231711926885	0.5222042584369334	0.5572542952225565	-0.4872130648531943	-1.208498048864988	0.6659157950102315	-0.2317591465521526	1.592649274067208	-1.21344179351123	-1.213441793571964	-0.06412282015477228	-0.1045264353510395	-0.5379540968370385	0.6723544144536251	4.530021314638313e-07	5.911318083769503e-07	-2.758102286284428e-06	-2.934599290873853e-07	5.536752131467344e-07	3.172805314374027e-07	4.432215029160523e-07
1.52	-0.3394295301019965	-0.0317542976037406	0.7711046648383847	1.154334591208479	-0.3051868039248792	0.0001243583710425194	-0.3268522231518796	0.7843821472008864	0.784382147200693	-0.1734125334341665	0.1660133905131288	0.1488635001457918	-0.02242404771250829	0.472049999678731	0.1762667928006923	0.5121509608376478	-2.194062144052524	-0.001644245084571298	-0.7084817623639137	0.6081860742556251	-2.142423055930641	-2.142423055930578	0.005483717653607108	-0.04740033791756655	-0.5438702698955349	-0.08989209763025341	-0.1868631892367848	0.06617314144070757	-0.02529267559383623	-0.2470672341056954	0.1109708592108791	-0.003156948999153063	0.1850218864679049	-3.177873167782118	0.8184046563017934	0.7339420328320242	-2.555411749553669	-597.288187631215	-18.64836806611967	-22.4543823688075	0.4675094865385835	0.5424776262608265	-0.5537076055797204	-0.9911441155513018	0.7231742146265957	-0.2484097193791637	1.553534415065897	-1.003456472979411	-1.003456472978915	0.0629302881285795	-0.08639929682053346	-0.4635398829037153	0.7372455919287945	5.022838556686994e-07	6.761581484131513e-07	-2.970386053636888e-06	-3.159973528148999e-07	6.122455073701644e-07	4.186696575590501e-07	4.80400154506916e-07
1.53	-0.3346857716989422	-0.02996468096357185	0.7761975010917765	1.132346414100852	-0.3051685904454082	-0.006969473170993826	-0.3206943196255593	0.7629100051865213	0.762910005186395	-0.1733593299019912	0.1655348486969829	0.1434019806125356	-0.02328799788332976	0.4766294818168981	0.1816320572484839	0.5063113890942463	-2.20324718927478	0.00530365856588113	-0.7102009857858488	0.6232914389593092	-2.151673463682457	-2.151673463682494	0.005166186667668283	-0.04829467768115193	-0.5483239644655498	-0.08288163101390902	-0.1801329692677413	0.06562898958562062	-0.02513302618077756	-0.2446085516450834	0.1129921204913048	-0.003958521077166112	0.1794270742696639	-2.319502239483529	0.8509107998093529	0.9175960737925539	-2.844994238037442	-592.9210246013588	-18.71581625948426	-23.73904093738543	0.4423904775539477	0.5298046522556551	-0.6146712005863333	-0.8332007918343934	0.6835366335341861	-0.1206359134330026	1.473558690726983	-0.8361617570953827	-0.8361617571105404	-0.07774443383557059	-0.08827208289048688	-0.4198444606500785	0.68567002614043	5.675200140397284e-07	7.515745283684666e-07	-3.277275184691202e-06	-3.528108935864982e-07	6.885180128652058e-07	5.277229667261124e-07	5.300298104300288e-07
1.54	-0.3298983738944862	-0.02812216091928159	0.781228823779361	1.110276183327751	-0.3050803102907751	-0.01407788839921938	-0.3143884582136599	0.7413552933284768	0.7413552933284119	-0.1733090316080463	0.1650478993298551	0.1378992120902592	-0.02408129882205715	0.4807778799589952	0.1868474736249932	0.4998482476762155	-2.210472877147895	0.01236908994752087	-0.711398499601079	0.6377776513712839	-2.158937024666777	-2.158937024666916	0.004902670006512048	-0.04908184811525633	-0.5521200676995544	-0.07576225121143686	-0.1734027492986766	0.06508483773052898	-0.02497337676763876	-0.2421498691844829	0.1150133817717246	-0.004760093155186375	0.1738322620714456	-1.464558609338771	0.8788006727031082	1.107946755571968	-3.164658416358709	-588.6216784076802	-18.89229725846922	-25.01478054361785	0.3812926873246999	0.5125080120042887	-0.6784215405056596	-0.5992726457232251	0.7466797608640596	-0.1440677980381717	1.4297039567241	-0.6060871194802812	-0.6060871194804081	0.07373315308510135	-0.06496543092435775	-0.3320216157017858	0.759028229154332	6.149543944100384e-07	8.611891669995595e-07	-3.476686591492815e-06	-3.713615609295911e-07	7.498946865045932e-07	6.443971078469248e-07	5.66830491511997e-07
1.55	-0.3250716535203124	-0.02622834138652105	0.7861924989546563	1.088143342294076	-0.3049211636588932	-0.02119529375253892	-0.3079411566198109	0.7197375563419472	0.71973755634204	-0.1732618900289528	0.164553393603813	0.1323615232929365	-0.0248033142229802	0.4844875275985369	0.1918808036505679	0.492789878684011	-2.21576218369313	0.01945642957014234	-0.7119455256467053	0.6515534135403743	-2.164291367294741	-2.164291367294789	0.004480254639013348	-0.04984134007913661	-0.5553207733704215	-0.06864976586547014	-0.1665933637338558	0.06428002488785012	-0.02474236275034387	-0.2398862815620783	0.1169876254144765	-0.005725608563353421	0.1681326168205976	-0.6478513765298832	0.9891805333360995	1.279895938307569	-3.322793568108213	-584.5245122838055	-18.98450204775777	-26.28060390032001	0.3540590373868487	0.4933276088553092	-0.7339171490175165	-0.4437098184707694	0.6896087572307137	0.01109836463326559	1.332124268356697	-0.4523772493648865	-0.4523772493511227	-0.1070451798149549	-0.08403994015427124	-0.2995598717022135	0.6862649111554785	6.418780305621295e-07	1.010206147148394e-06	-3.552264968177192e-06	-3.688702219311462e-07	7.94108771266815e-07	7.698517727405355e-07	5.888499624509078e-07
1.56	-0.3202101850227197	-0.02428527213130039	0.7910827159259414	1.065967618163042	-0.3046911740919306	-0.02831394569182338	-0.3013599750199993	0.6980758220461585	0.6980758220464041	-0.173220335863161	0.1640507731859275	0.1267947344731205	-0.02545442352567605	0.4877275046427973	0.1966974181170184	0.4851566068742286	-2.219049496620249	0.02653767696354623	-0.7116478167940079	0.6645536525636698	-2.167736486519123	-2.16773648651908	0.003785187345612583	-0.05070478648439361	-0.5579400721982114	-0.06158103156599658	-0.1597839781690154	0.06347521204517374	-0.02451134873304064	-0.2376226939396734	0.1189618690572273	-0.00669112397151578	0.1624329715697682	0.1678342198065828	1.094065957670076	1.459203709745427	-3.52380235236893	-580.4652022070029	-19.18948851526546	-27.53626840244807	0.2873585682685845	0.4691649001793481	-0.7934021040212713	-0.1988739221003719	0.7454613150205506	0.02487918162660865	1.274599327565175	-0.2242424387641164	-0.2242424387641549	0.01920276790469381	-0.08575631919971677	-0.2157402470864644	0.7502780198556819	5.580251385904638e-07	1.313516779155865e-06	-3.060227671680619e-06	-2.650083149180875e-07	7.312731845503377e-07	8.561086243426471e-07	5.416843700808246e-07
1.57	-0.3153187576941432	-0.02229514177045136	0.7958937628057651	1.043769461429799	-0.3043898528137785	-0.03542866731810479	-0.2946525691643812	0.6763901831666584	0.6763901831669359	-0.1731839723999324	0.1635411873344765	0.1212051678033313	-0.02603431876561131	0.490480374649146	0.2012898774210661	0.4769642485317135	-2.220241170315645	0.03371750442236008	-0.7111648399156457	0.6767925992422471	-2.169047283711153	-2.169047283711098	0.003449640009127909	-0.05121911705078838	-0.5598599528803374	-0.05440896093753028	-0.1530204551164178	0.06243533568242183	-0.02428482831419973	-0.2355377018640134	0.1211358772175612	-0.007801947715141984	0.1567775151144883	1.02815225336434	1.256840967508341	1.626314468516831	-3.748140836218947	-576.6481363495991	-19.32526986787787	-28.77186086571336	0.2576356400528472	0.448489614923761	-0.8453465024072279	-0.02818256948658224	0.7028349631727986	0.08011735919981919	1.178304440430029	-0.0329637268138383	-0.0329637268120875	-0.06534047537413513	-0.03501100954152372	-0.1630858695006651	0.6988361273269933	3.357015864641035e-07	1.809694475986629e-06	-1.858670783707866e-06	-3.443319788676253e-08	5.34625508485488e-07	8.933682093303854e-07	4.080374485744998e-07
1.58	-0.3104021247808552	-0.02026024618268046	0.8006202473415553	1.02156961426436	-0.3040170149606641	-0.04253453709195059	-0.2878268214214917	0.6547017432417652	0.6547017432420632	-0.1731520458082684	0.1630263102605163	0.1155998075485757	-0.02654286039066492	0.4927686215848849	0.2056504635013898	0.4682441380675813	-2.219387583060132	0.04084099195561173	-0.7098774463069311	0.688222030017862	-2.168296695598839	-2.168296695598773	0.002897813034684239	-0.05176303098446897	-0.5610987891914637	-0.04731030858966658	-0.1462569320638016	0.06139545931968198	-0.02405830789544159	-0.2334527097883386	0.1233098853778976	-0.008912771458755292	0.1511220586592229	1.880420903277372	1.417965063962376	1.797184573179236	-3.969213632524128	-572.9559499247566	-19.53572703998575	-29.97311442308563	0.1944339541467255	0.422790255434443	-0.8989525283447406	0.2101782680816638	0.7341933299081277	0.1857625276970963	1.112696146972716	0.1880346221046013	0.1880346221046098	-0.02405315968709569	-0.09167299265689603	-0.07953137288663852	0.7355943637351438	1.981393096941328e-07	2.126133099229676e-06	-1.131861516461893e-06	1.080546958851822e-07	4.161661566459851e-07	9.265246874967268e-07	3.276096809073808e-07
